{
  "accessors": [
    {
      "bufferView": 2,
      "componentType": 5126,
      "count": 65532,
      "max": [
        2.4297983646392822,
        2.0012962818145752,
        2.0012962818145752
      ],
      "min": [
        -2.2763466835021973,
        -2.0012962818145752,
        -2.3342001438140869
      ],
      "type": "VEC3"
    },
    {
      "bufferView": 2,
      "byteOffset": 786384,
      "componentType": 5126,
      "count": 65532,
      "max": [
        1,
        1,
        1
      ],
      "min": [
        -1,
        -1,
        -1
      ],
      "type": "VEC3"
    },
    {
      "bufferView": 3,
      "componentType": 5126,
      "count": 65532,
      "max": [
        1,
        1,
        1,
        1
      ],
      "min": [
        -1,
        -1,
        -1,
        1
      ],
      "type": "VEC4"
    },
    {
      "bufferView": 1,
      "componentType": 5126,
      "count": 65532,
      "max": [
        0.99961632490158081,
        0.99967938661575317
      ],
      "min": [
        0.0040083969943225384,
        0.01230920385569334
      ],
      "type": "VEC2"
    },
    {
      "bufferView": 0,
      "componentType": 5125,
      "count": 304092,
      "max": [
        65531
      ],
      "min": [
        0
      ],
      "type": "SCALAR"
    },
    {
      "bufferView": 2,
      "byteOffset": 1572768,
      "componentType": 5126,
      "count": 65532,
      "max": [
        22.279539108276367,
        3.1122462749481201,
        40.549312591552734
      ],
      "min": [
        -6.2542219161987305,
        -11.837767601013184,
        -7.2609615325927734
      ],
      "type": "VEC3"
    },
    {
      "bufferView": 2,
      "byteOffset": 2359152,
      "componentType": 5126,
      "count": 65532,
      "max": [
        1,
        1,
        1
      ],
      "min": [
        -1,
        -1,
        -1
      ],
      "type": "VEC3"
    },
    {
      "bufferView": 3,
      "byteOffset": 1048512,
      "componentType": 5126,
      "count": 65532,
      "max": [
        1,
        1,
        1,
        1
      ],
      "min": [
        -1,
        -1,
        -1,
        -1
      ],
      "type": "VEC4"
    },
    {
      "bufferView": 1,
      "byteOffset": 524256,
      "componentType": 5126,
      "count": 65532,
      "max": [
        0.99914306402206421,
        0.99923372268676758
      ],
      "min": [
        0,
        0
      ],
      "type": "VEC2"
    },
    {
      "bufferView": 0,
      "byteOffset": 1216368,
      "componentType": 5125,
      "count": 250692,
      "max": [
        65531
      ],
      "min": [
        0
      ],
      "type": "SCALAR"
    },
    {
      "bufferView": 2,
      "byteOffset": 3145536,
      "componentType": 5126,
      "count": 65532,
      "max": [
        10.365763664245605,
        35.157814025878906,
        2.5297622680664062
      ],
      "min": [
        -4.716463565826416,
        -35.094680786132812,
        -36.807693481445312
      ],
      "type": "VEC3"
    },
    {
      "bufferView": 2,
      "byteOffset": 3931920,
      "componentType": 5126,
      "count": 65532,
      "max": [
        1,
        1,
        1
      ],
      "min": [
        -1,
        -1,
        -1
      ],
      "type": "VEC3"
    },
    {
      "bufferView": 3,
      "byteOffset": 2097024,
      "componentType": 5126,
      "count": 65532,
      "max": [
        1,
        1,
        1,
        1
      ],
      "min": [
        -1,
        -1,
        -1,
        -1
      ],
      "type": "VEC4"
    },
    {
      "bufferView": 1,
      "byteOffset": 1048512,
      "componentType": 5126,
      "count": 65532,
      "max": [
        0.9988248348236084,
        0.99914968013763428
      ],
      "min": [
        0,
        0
      ],
      "type": "VEC2"
    },
    {
      "bufferView": 0,
      "byteOffset": 2219136,
      "componentType": 5125,
      "count": 309846,
      "max": [
        65531
      ],
      "min": [
        0
      ],
      "type": "SCALAR"
    },
    {
      "bufferView": 2,
      "byteOffset": 4718304,
      "componentType": 5126,
      "count": 65532,
      "max": [
        10.176639556884766,
        2.6233782768249512,
        1.9391492605209351
      ],
      "min": [
        2.8627603054046631,
        -2.4343321323394775,
        -2.392643928527832
      ],
      "type": "VEC3"
    },
    {
      "bufferView": 2,
      "byteOffset": 5504688,
      "componentType": 5126,
      "count": 65532,
      "max": [
        1,
        1,
        1
      ],
      "min": [
        -1,
        -1,
        -1
      ],
      "type": "VEC3"
    },
    {
      "bufferView": 3,
      "byteOffset": 3145536,
      "componentType": 5126,
      "count": 65532,
      "max": [
        1,
        1,
        1,
        1
      ],
      "min": [
        -1,
        -1,
        -1,
        -1
      ],
      "type": "VEC4"
    },
    {
      "bufferView": 1,
      "byteOffset": 1572768,
      "componentType": 5126,
      "count": 65532,
      "max": [
        0.99970418214797974,
        0.99983662366867065
      ],
      "min": [
        0,
        0
      ],
      "type": "VEC2"
    },
    {
      "bufferView": 0,
      "byteOffset": 3458520,
      "componentType": 5125,
      "count": 296814,
      "max": [
        65531
      ],
      "min": [
        0
      ],
      "type": "SCALAR"
    },
    {
      "bufferView": 2,
      "byteOffset": 6291072,
      "componentType": 5126,
      "count": 65532,
      "max": [
        8.6180839538574219,
        0.84855425357818604,
        2.2112598419189453
      ],
      "min": [
        4.3317356109619141,
        -1.807147741317749,
        0.58219105005264282
      ],
      "type": "VEC3"
    },
    {
      "bufferView": 2,
      "byteOffset": 7077456,
      "componentType": 5126,
      "count": 65532,
      "max": [
        0.99999678134918213,
        0.99999994039535522,
        1
      ],
      "min": [
        -1,
        -1,
        -1
      ],
      "type": "VEC3"
    },
    {
      "bufferView": 3,
      "byteOffset": 4194048,
      "componentType": 5126,
      "count": 65532,
      "max": [
        0.99999135732650757,
        1,
        1,
        1
      ],
      "min": [
        -0.99999707937240601,
        -1,
        -1,
        1
      ],
      "type": "VEC4"
    },
    {
      "bufferView": 1,
      "byteOffset": 2097024,
      "componentType": 5126,
      "count": 65532,
      "max": [
        0.99976843595504761,
        0.99948799610137939
      ],
      "min": [
        0.0053843790665268898,
        0
      ],
      "type": "VEC2"
    },
    {
      "bufferView": 0,
      "byteOffset": 4645776,
      "componentType": 5125,
      "count": 279087,
      "max": [
        65531
      ],
      "min": [
        0
      ],
      "type": "SCALAR"
    },
    {
      "bufferView": 2,
      "byteOffset": 7863840,
      "componentType": 5126,
      "count": 65534,
      "max": [
        8.6180839538574219,
        2.2677459716796875,
        2.4603085517883301
      ],
      "min": [
        1.5963939428329468,
        -2.2296774387359619,
        -2.327847957611084
      ],
      "type": "VEC3"
    },
    {
      "bufferView": 2,
      "byteOffset": 8650248,
      "componentType": 5126,
      "count": 65534,
      "max": [
        1,
        1,
        1
      ],
      "min": [
        -1,
        -1,
        -1
      ],
      "type": "VEC3"
    },
    {
      "bufferView": 3,
      "byteOffset": 5242560,
      "componentType": 5126,
      "count": 65534,
      "max": [
        1,
        1,
        1,
        1
      ],
      "min": [
        -1,
        -1,
        -1,
        -1
      ],
      "type": "VEC4"
    },
    {
      "bufferView": 1,
      "byteOffset": 2621280,
      "componentType": 5126,
      "count": 65534,
      "max": [
        0.99878066778182983,
        0.99904143810272217
      ],
      "min": [
        0.0053843790665268898,
        0
      ],
      "type": "VEC2"
    },
    {
      "bufferView": 0,
      "byteOffset": 5762124,
      "componentType": 5125,
      "count": 225030,
      "max": [
        65533
      ],
      "min": [
        0
      ],
      "type": "SCALAR"
    },
    {
      "bufferView": 2,
      "byteOffset": 9436656,
      "componentType": 5126,
      "count": 65532,
      "max": [
        5.635190486907959,
        1.3680679798126221,
        -0.9346846342086792
      ],
      "min": [
        5.5567440986633301,
        0.79983711242675781,
        -1.342505931854248
      ],
      "type": "VEC3"
    },
    {
      "bufferView": 2,
      "byteOffset": 10223040,
      "componentType": 5126,
      "count": 65532,
      "max": [
        0.9999992847442627,
        0.65693265199661255,
        0.9998660683631897
      ],
      "min": [
        -0.99999970197677612,
        -0.7905048131942749,
        -0.99986499547958374
      ],
      "type": "VEC3"
    },
    {
      "bufferView": 3,
      "byteOffset": 6291104,
      "componentType": 5126,
      "count": 65532,
      "max": [
        0.99987161159515381,
        0.82861143350601196,
        1,
        1
      ],
      "min": [
        -0.99987143278121948,
        -0.089329533278942108,
        -0.71337944269180298,
        1
      ],
      "type": "VEC4"
    },
    {
      "bufferView": 1,
      "byteOffset": 3145552,
      "componentType": 5126,
      "count": 65532,
      "max": [
        0.99389630556106567,
        0.97879266738891602
      ],
      "min": [
        0.21901367604732513,
        0.81819403171539307
      ],
      "type": "VEC2"
    },
    {
      "bufferView": 0,
      "byteOffset": 6662244,
      "componentType": 5125,
      "count": 69561,
      "max": [
        65531
      ],
      "min": [
        0
      ],
      "type": "SCALAR"
    },
    {
      "bufferView": 2,
      "byteOffset": 11009424,
      "componentType": 5126,
      "count": 65533,
      "max": [
        21.89561653137207,
        34.979976654052734,
        40.337886810302734
      ],
      "min": [
        -6.2206182479858398,
        -34.945713043212891,
        -36.943431854248047
      ],
      "type": "VEC3"
    },
    {
      "bufferView": 2,
      "byteOffset": 11795820,
      "componentType": 5126,
      "count": 65533,
      "max": [
        1,
        1,
        1
      ],
      "min": [
        -1,
        -1,
        -1
      ],
      "type": "VEC3"
    },
    {
      "bufferView": 3,
      "byteOffset": 7339616,
      "componentType": 5126,
      "count": 65533,
      "max": [
        1,
        1,
        1,
        1
      ],
      "min": [
        -1,
        -1,
        -1,
        -1
      ],
      "type": "VEC4"
    },
    {
      "bufferView": 1,
      "byteOffset": 3669808,
      "componentType": 5126,
      "count": 65533,
      "max": [
        1,
        1
      ],
      "min": [
        0,
        0
      ],
      "type": "VEC2"
    },
    {
      "bufferView": 0,
      "byteOffset": 6940488,
      "componentType": 5125,
      "count": 75831,
      "max": [
        65532
      ],
      "min": [
        0
      ],
      "type": "SCALAR"
    },
    {
      "bufferView": 2,
      "byteOffset": 12582216,
      "componentType": 5126,
      "count": 65532,
      "max": [
        5.6400337219238281,
        1.3698203563690186,
        -0.9346846342086792
      ],
      "min": [
        5.5567440986633301,
        0.79804772138595581,
        -1.3546140193939209
      ],
      "type": "VEC3"
    },
    {
      "bufferView": 2,
      "byteOffset": 13368600,
      "componentType": 5126,
      "count": 65532,
      "max": [
        0.9999997615814209,
        0.98529899120330811,
        0.99986499547958374
      ],
      "min": [
        -0.9999992847442627,
        -0.99970227479934692,
        -0.9998633861541748
      ],
      "type": "VEC3"
    },
    {
      "bufferView": 3,
      "byteOffset": 8388144,
      "componentType": 5126,
      "count": 65532,
      "max": [
        0.99988442659378052,
        0.82814091444015503,
        1,
        1
      ],
      "min": [
        -0.9998665452003479,
        -0.61021840572357178,
        -0.71258169412612915,
        1
      ],
      "type": "VEC4"
    },
    {
      "bufferView": 1,
      "byteOffset": 4194072,
      "componentType": 5126,
      "count": 65532,
      "max": [
        0.99409025907516479,
        0.97971665859222412
      ],
      "min": [
        0.21901367604732513,
        0.81731802225112915
      ],
      "type": "VEC2"
    },
    {
      "bufferView": 0,
      "byteOffset": 7243812,
      "componentType": 5125,
      "count": 66870,
      "max": [
        65531
      ],
      "min": [
        0
      ],
      "type": "SCALAR"
    },
    {
      "bufferView": 2,
      "byteOffset": 14154984,
      "componentType": 5126,
      "count": 18232,
      "max": [
        10.289140701293945,
        2.2564475536346436,
        2.2395052909851074
      ],
      "min": [
        1.4534993171691895,
        -2.257094144821167,
        -8.5612077713012695
      ],
      "type": "VEC3"
    },
    {
      "bufferView": 2,
      "byteOffset": 14373768,
      "componentType": 5126,
      "count": 18232,
      "max": [
        1,
        1,
        1
      ],
      "min": [
        -1,
        -1,
        -1
      ],
      "type": "VEC3"
    },
    {
      "bufferView": 3,
      "byteOffset": 9436656,
      "componentType": 5126,
      "count": 18232,
      "max": [
        1,
        1,
        1,
        1
      ],
      "min": [
        -1,
        -1,
        -1,
        -1
      ],
      "type": "VEC4"
    },
    {
      "bufferView": 1,
      "byteOffset": 4718328,
      "componentType": 5126,
      "count": 18232,
      "max": [
        1,
        1
      ],
      "min": [
        0,
        0
      ],
      "type": "VEC2"
    },
    {
      "bufferView": 0,
      "byteOffset": 7511292,
      "componentType": 5125,
      "count": 18459,
      "max": [
        18231
      ],
      "min": [
        0
      ],
      "type": "SCALAR"
    }
  ],
  "asset": {
    "extras": {
      "author": "HomoMilch (https://sketchfab.com/homomilk)",
      "license": "CC-BY-SA-4.0 (http://creativecommons.org/licenses/by-sa/4.0/)",
      "source": "https://sketchfab.com/models/86644810fea046e788b9679122c3bf69",
      "title": "Wind Turbine"
    },
    "generator": "Sketchfab-3.41.2",
    "version": "2.0"
  },
  "bufferViews": [
    {
      "buffer": 0,
      "byteLength": 7585128,
      "byteOffset": 0,
      "name": "floatBufferViews",
      "target": 34963
    },
    {
      "buffer": 0,
      "byteLength": 4864184,
      "byteOffset": 7585128,
      "byteStride": 8,
      "name": "floatBufferViews",
      "target": 34962
    },
    {
      "buffer": 0,
      "byteLength": 14592552,
      "byteOffset": 12449312,
      "byteStride": 12,
      "name": "floatBufferViews",
      "target": 34962
    },
    {
      "buffer": 0,
      "byteLength": 9728368,
      "byteOffset": 27041864,
      "byteStride": 16,
      "name": "floatBufferViews",
      "target": 34962
    }
  ],
  "buffers": [
    {
      "byteLength": 36770232,
      "uri": "scene.bin"
    }
  ],
  "materials": [
    {
      "doubleSided": true,
      "emissiveFactor": [
        0,
        0,
        0
      ],
      "name": "Material.004",
      "pbrMetallicRoughness": {
        "baseColorFactor": [
          0.74095565230000004,
          0.73539865339999999,
          0.70447476730000003,
          1
        ],
        "metallicFactor": 0,
        "roughnessFactor": 0.95770514949999996
      }
    }
  ],
  "meshes": [
    {
      "name": "Cylinder.048_Material.004_0",
      "primitives": [
        {
          "attributes": {
            "NORMAL": 1,
            "POSITION": 0,
            "TANGENT": 2,
            "TEXCOORD_0": 3
          },
          "indices": 4,
          "material": 0,
          "mode": 4
        }
      ]
    },
    {
      "name": "Cylinder.048_Material.004_0",
      "primitives": [
        {
          "attributes": {
            "NORMAL": 6,
            "POSITION": 5,
            "TANGENT": 7,
            "TEXCOORD_0": 8
          },
          "indices": 9,
          "material": 0,
          "mode": 4
        }
      ]
    },
    {
      "name": "Cylinder.048_Material.004_0",
      "primitives": [
        {
          "attributes": {
            "NORMAL": 11,
            "POSITION": 10,
            "TANGENT": 12,
            "TEXCOORD_0": 13
          },
          "indices": 14,
          "material": 0,
          "mode": 4
        }
      ]
    },
    {
      "name": "Cylinder.048_Material.004_0",
      "primitives": [
        {
          "attributes": {
            "NORMAL": 16,
            "POSITION": 15,
            "TANGENT": 17,
            "TEXCOORD_0": 18
          },
          "indices": 19,
          "material": 0,
          "mode": 4
        }
      ]
    },
    {
      "name": "Cylinder.048_Material.004_0",
      "primitives": [
        {
          "attributes": {
            "NORMAL": 21,
            "POSITION": 20,
            "TANGENT": 22,
            "TEXCOORD_0": 23
          },
          "indices": 24,
          "material": 0,
          "mode": 4
        }
      ]
    },
    {
      "name": "Cylinder.048_Material.004_0",
      "primitives": [
        {
          "attributes": {
            "NORMAL": 26,
            "POSITION": 25,
            "TANGENT": 27,
            "TEXCOORD_0": 28
          },
          "indices": 29,
          "material": 0,
          "mode": 4
        }
      ]
    },
    {
      "name": "Cylinder.048_Material.004_0",
      "primitives": [
        {
          "attributes": {
            "NORMAL": 31,
            "POSITION": 30,
            "TANGENT": 32,
            "TEXCOORD_0": 33
          },
          "indices": 34,
          "material": 0,
          "mode": 4
        }
      ]
    },
    {
      "name": "Cylinder.048_Material.004_0",
      "primitives": [
        {
          "attributes": {
            "NORMAL": 36,
            "POSITION": 35,
            "TANGENT": 37,
            "TEXCOORD_0": 38
          },
          "indices": 39,
          "material": 0,
          "mode": 4
        }
      ]
    },
    {
      "name": "Cylinder.048_Material.004_0",
      "primitives": [
        {
          "attributes": {
            "NORMAL": 41,
            "POSITION": 40,
            "TANGENT": 42,
            "TEXCOORD_0": 43
          },
          "indices": 44,
          "material": 0,
          "mode": 4
        }
      ]
    },
    {
      "name": "Cylinder.048_Material.004_0",
      "primitives": [
        {
          "attributes": {
            "NORMAL": 46,
            "POSITION": 45,
            "TANGENT": 47,
            "TEXCOORD_0": 48
          },
          "indices": 49,
          "material": 0,
          "mode": 4
        }
      ]
    }
  ],
  "nodes": [
    {
      "children": [
        1
      ],
      "name": "RootNode (gltf orientation matrix)",
      "rotation": [
        -0.70710678118654746,
        -0,
        -0,
        0.70710678118654757
      ]
    },
    {
      "children": [
        2
      ],
      "name": "RootNode (model correction matrix)"
    },
    {
      "children": [
        3
      ],
      "matrix": [
        1,
        0,
        0,
        0,
        0,
        0,
        1,
        0,
        0,
        -1,
        0,
        0,
        0,
        0,
        0,
        1
      ],
      "name": "a5bdec0dbba0449daf782b2c9d779dac.fbx"
    },
    {
      "children": [
        4
      ],
      "name": "RootNode"
    },
    {
      "children": [
        5,
        6,
        7,
        8,
        9,
        10,
        11,
        12,
        13,
        14
      ],
      "matrix": [
        100,
        0,
        0,
        0,
        -0,
        -1.6292067939183141e-05,
        -99.999999999998678,
        0,
        0,
        99.999999999998678,
        -1.6292067939183141e-05,
        0,
        -228.49693298339844,
        358.8201904296875,
        2.9676270060008392e-05,
        1
      ],
      "name": "Cylinder.048"
    },
    {
      "mesh": 0,
      "name": "Cylinder.048_Material.004_0"
    },
    {
      "mesh": 1,
      "name": "Cylinder.048_Material.004_0"
    },
    {
      "mesh": 2,
      "name": "Cylinder.048_Material.004_0"
    },
    {
      "mesh": 3,
      "name": "Cylinder.048_Material.004_0"
    },
    {
      "mesh": 4,
      "name": "Cylinder.048_Material.004_0"
    },
    {
      "mesh": 5,
      "name": "Cylinder.048_Material.004_0"
    },
    {
      "mesh": 6,
      "name": "Cylinder.048_Material.004_0"
    },
    {
      "mesh": 7,
      "name": "Cylinder.048_Material.004_0"
    },
    {
      "mesh": 8,
      "name": "Cylinder.048_Material.004_0"
    },
    {
      "mesh": 9,
      "name": "Cylinder.048_Material.004_0"
    }
  ],
  "scene": 0,
  "scenes": [
    {
      "name": "OSG_Scene",
      "nodes": [
        0
      ]
    }
  ]
}

